<?xml version="1.0" encoding="UTF-8"?> <svg xmlns="http://www.w3.org/2000/svg" id="Group_414" data-name="Group 414" width="47.754" height="47.754" viewBox="0 0 47.754 47.754"><path id="Path_3988" data-name="Path 3988" d="M4.136,47.754S0,47.754,0,43.617V4.136S0,0,4.136,0H43.617s4.136,0,4.136,4.136V43.617s0,4.136-4.136,4.136Z" fill="#db0007"></path><g id="Group_413" data-name="Group 413" transform="translate(8.027 9.814)"><path id="Path_3989" data-name="Path 3989" d="M46.23,28.659c-2.8,0-5.3,3.733-6.935,9.569-1.634-5.837-4.133-9.569-6.935-9.569-4.924,0-8.917,12.42-8.917,27.739h3.964c0-14.225,2.218-25.758,4.953-25.758s4.954,10.646,4.954,23.777h3.963c0-13.131,2.218-23.777,4.954-23.777S51.184,42.173,51.184,56.4h3.962C55.146,41.079,51.154,28.659,46.23,28.659Z" transform="translate(-23.443 -28.659)" fill="#ffbc0d"></path></g></svg> 